<?xml version="1.0" encoding="UTF-8"?><svg xmlns="http://www.w3.org/2000/svg" viewBox="0 0 1080 1080"><defs><style>.c{fill:#fff;}.d{fill:#61ff61;}</style></defs><g id="a"><g><path class="c" d="M103.46,484.24v111.83h-35.07v-43.6H35.07v43.6H0v-111.83H35.07v40.28h33.33v-40.28h35.07Z"/><path class="c" d="M190.97,579.17h-37.28l-5.53,16.9h-36.8l40.91-111.83h40.44l40.75,111.83h-36.96l-5.53-16.9Zm-8.53-26.38l-10.11-31.12-10.11,31.12h20.22Z"/><path class="c" d="M375.78,484.24v111.83h-34.91v-55.76l-17.22,55.76h-30.01l-17.22-55.76v55.76h-35.07v-111.83h42.96l24.64,67.13,24.01-67.13h42.81Z"/><path class="c" d="M478.14,541.82c-3.27,5.74-8.08,10.29-14.45,13.66-6.37,3.37-14.09,5.05-23.14,5.05h-13.9v35.54h-35.07v-111.83h48.97c13.69,0,24.19,3.48,31.51,10.43,7.32,6.95,10.98,16.27,10.98,27.96,0,7.06-1.63,13.45-4.9,19.19Zm-30.64-19.19c0-6.84-3.63-10.27-10.9-10.27h-9.95v20.53h9.95c7.27,0,10.9-3.42,10.9-10.27Z"/><path class="c" d="M713.86,484.24v111.83h-35.07v-43.6h-33.33v43.6h-35.07v-111.83h35.07v40.28h33.33v-40.28h35.07Z"/><path class="c" d="M801.36,579.17h-37.28l-5.53,16.9h-36.8l40.91-111.83h40.44l40.75,111.83h-36.96l-5.53-16.9Zm-8.53-26.38l-10.11-31.12-10.11,31.12h20.22Z"/><path class="c" d="M855.31,510.46c4.48-8.63,10.87-15.35,19.19-20.14,8.32-4.79,18.11-7.19,29.38-7.19,9.69,0,18.35,1.82,25.98,5.45,7.63,3.63,13.85,8.77,18.64,15.4,4.79,6.63,7.98,14.37,9.56,23.22h-36.96c-1.69-3.68-4.08-6.56-7.19-8.61-3.11-2.05-6.66-3.08-10.66-3.08-5.9,0-10.56,2.21-13.98,6.63-3.42,4.42-5.13,10.37-5.13,17.85s1.71,13.43,5.13,17.85c3.42,4.42,8.08,6.63,13.98,6.63,4,0,7.55-1.03,10.66-3.08,3.11-2.05,5.5-4.92,7.19-8.61h36.96c-1.58,8.85-4.77,16.59-9.56,23.22-4.79,6.63-11,11.77-18.64,15.4-7.64,3.63-16.3,5.45-25.98,5.45-11.27,0-21.06-2.39-29.38-7.19-8.32-4.79-14.72-11.5-19.19-20.14-4.48-8.63-6.71-18.48-6.71-29.54s2.24-20.9,6.71-29.54Z"/><path class="c" d="M1038.3,596.07l-32.54-48.49v48.49h-35.07v-111.83h35.07v47.07l32.07-47.07h39.65l-38.54,53.55,41.07,58.29h-41.7Z"/></g><path class="d" d="M584.06,522.94h-35.02c-1.9,0-3.44-1.54-3.44-3.44v-43.93c0-3.5-4.62-4.76-6.4-1.75l-46.23,78.05c-1.36,2.29,.29,5.19,2.96,5.19h35.02c1.9,0,3.44,1.54,3.44,3.44v43.93c0,3.5,4.62,4.76,6.4,1.75l46.23-78.05c1.36-2.29-.29-5.19-2.96-5.19Z"/></g><g id="b"/></svg>