<?xml version="1.0" encoding="UTF-8"?><svg xmlns="http://www.w3.org/2000/svg" viewBox="0 0 1080 1080"><defs><style>.c{fill:#fff;}.d{fill:#61ff61;}</style></defs><g id="a"><path class="c" d="M565.28,237.82V842.42h-189.58v-235.69H195.51v235.69H5.93V237.82H195.51v217.76h180.19V237.82h189.58Z"/><path class="d" d="M1058.77,464.34h-155.52c-8.44,0-15.28-6.84-15.28-15.28V253.97c0-15.54-20.5-21.15-28.42-7.78l-205.32,346.65c-6.03,10.18,1.31,23.06,13.14,23.06h155.52c8.44,0,15.28,6.84,15.28,15.28v195.09c0,15.54,20.5,21.15,28.42,7.78l205.32-346.65c6.03-10.18-1.31-23.06-13.14-23.06Z"/></g><g id="b"/></svg>