<svg width="331" height="49" viewBox="0 0 331 49" fill="none" xmlns="http://www.w3.org/2000/svg">
<path d="M0.794922 39L6.33203 7.60254H13.3457L11.0078 19.6816C12.2383 18.2324 13.749 17.0156 15.54 16.0312C17.3447 15.0469 19.5801 14.5615 22.2461 14.5752C26.5254 14.5615 29.5332 15.4434 31.2695 17.2207C33.0195 18.998 33.5801 22.0195 32.9512 26.2852L30.7158 39H23.6816L25.8555 26.6338C26.1699 24.2002 25.7598 22.5117 24.625 21.5684C23.5039 20.6113 21.8018 20.1328 19.5186 20.1328C17.4951 20.1328 15.7178 20.5771 14.1865 21.4658C12.6689 22.3545 11.3428 23.4619 10.208 24.7881L7.80859 39H0.794922ZM35.4736 32.0068C35.8975 29.3955 37.5723 27.4199 40.498 26.0801C43.4238 24.7266 47.2451 24.0498 51.9619 24.0498H60.4316L60.6572 21.7734C60.8623 20.8301 60.3975 20.1738 59.2627 19.8047C58.1279 19.4219 56.2754 19.2305 53.7051 19.2305C51.2441 19.2305 49.3232 19.4697 47.9424 19.9482C46.5615 20.4131 45.8027 21.1104 45.666 22.04L45.625 22.4912H38.7549L38.7754 22.0605C39.1855 19.4355 40.8535 17.501 43.7793 16.2568C46.7188 14.999 50.417 14.3701 54.874 14.3701C59.2217 14.3701 62.5303 14.999 64.7998 16.2568C67.0693 17.501 67.9922 19.3467 67.5684 21.7939L65.8047 34.1396C65.6543 35.0146 65.6406 35.8623 65.7637 36.6826C65.9004 37.4893 66.1328 38.1523 66.4609 38.6719L66.3994 39H59.5908C59.3994 38.6719 59.249 38.2139 59.1396 37.626C59.0303 37.0244 58.9893 36.4707 59.0166 35.9648C58.1689 36.8945 56.5488 37.7012 54.1562 38.3848C51.7637 39.0547 49.0361 39.3896 45.9736 39.3896C42.5283 39.3896 39.8213 38.7676 37.8525 37.5234C35.8838 36.2656 35.0908 34.4268 35.4736 32.0068ZM42.5898 31.5557C42.3984 32.6494 42.8428 33.4287 43.9229 33.8936C45.0166 34.3584 46.8418 34.5908 49.3984 34.5908C51.8594 34.5908 54.1084 34.2285 56.1455 33.5039C58.1963 32.7656 59.3242 31.8018 59.5293 30.6123L59.8984 28.1309H52.3721C49.4736 28.1309 47.1631 28.4316 45.4404 29.0332C43.7178 29.6211 42.7676 30.4619 42.5898 31.5557ZM70.2344 39L74.0488 14.9854H80.8164L80.4678 19.1074H80.4268C82.0674 17.3711 83.9131 16.1816 85.9639 15.5391C88.0146 14.8828 90.1816 14.5547 92.4648 14.5547C94.7617 14.5547 96.7373 14.9922 98.3916 15.8672C100.046 16.7285 101.14 17.959 101.673 19.5586H101.591C103.149 17.9043 105.193 16.6602 107.723 15.8262C110.252 14.9785 112.795 14.5547 115.352 14.5547C118.633 14.5547 121.23 15.5254 123.145 17.4668C125.059 19.4082 125.694 22.6553 125.052 27.208L122.919 39H115.926L118.12 26.8389C118.339 24.501 117.908 22.7988 116.828 21.7324C115.762 20.666 114.094 20.1328 111.824 20.1328C109.924 20.1191 108.181 20.5361 106.595 21.3838C105.022 22.2314 103.669 23.3252 102.534 24.665L100.094 39H93.0596L95.2334 26.9004C95.4795 24.5215 95.042 22.7988 93.9209 21.7324C92.7998 20.666 91.0908 20.1328 88.7939 20.1328C86.9209 20.1328 85.2188 20.5498 83.6875 21.3838C82.1699 22.2041 80.8369 23.2979 79.6885 24.665L77.248 39H70.2344ZM126.077 47.5312L131.389 14.9854H137.992L137.726 18.1436H137.664C138.73 17.0908 140.351 16.2295 142.524 15.5596C144.712 14.8896 147.063 14.5547 149.579 14.5547C153.845 14.5547 157.119 15.6553 159.402 17.8564C161.699 20.0576 162.561 22.9902 161.986 26.6543L161.863 27.3105C161.275 30.9473 159.519 33.873 156.593 36.0879C153.681 38.3027 150.167 39.4102 146.052 39.4102C143.536 39.4102 141.294 39.123 139.325 38.5488C137.356 37.9746 135.928 37.1611 135.039 36.1084L133.091 47.5312H126.077ZM135.839 30.2227C136.304 31.2344 137.336 32.0957 138.936 32.8066C140.549 33.5039 142.415 33.8525 144.534 33.8525C147.556 33.8525 149.907 33.3398 151.589 32.3145C153.271 31.2754 154.275 29.7168 154.604 27.6387L154.829 26.3262C155.144 24.2344 154.651 22.6758 153.353 21.6504C152.067 20.625 149.88 20.1123 146.79 20.1123C144.657 20.1123 142.688 20.4609 140.884 21.1582C139.093 21.8555 137.794 22.6826 136.987 23.6396L135.839 30.2227Z" fill="white"/>
<path d="M184.182 3.5L179.982 22.4H190.482L173.682 45.5L177.5 24.5H167L184.182 3.5Z" fill="#49ED94"/>
<path d="M193.277 39L198.814 7.60254H205.828L203.49 19.6816C204.72 18.2324 206.231 17.0156 208.022 16.0312C209.827 15.0469 212.062 14.5615 214.728 14.5752C219.007 14.5615 222.015 15.4434 223.751 17.2207C225.501 18.998 226.062 22.0195 225.433 26.2852L223.198 39H216.163L218.337 26.6338C218.652 24.2002 218.242 22.5117 217.107 21.5684C215.986 20.6113 214.284 20.1328 212 20.1328C209.977 20.1328 208.2 20.5771 206.668 21.4658C205.151 22.3545 203.825 23.4619 202.69 24.7881L200.29 39H193.277ZM227.955 32.0068C228.379 29.3955 230.054 27.4199 232.98 26.0801C235.906 24.7266 239.727 24.0498 244.444 24.0498H252.913L253.139 21.7734C253.344 20.8301 252.879 20.1738 251.745 19.8047C250.61 19.4219 248.757 19.2305 246.187 19.2305C243.726 19.2305 241.805 19.4697 240.424 19.9482C239.043 20.4131 238.285 21.1104 238.148 22.04L238.107 22.4912H231.237L231.257 22.0605C231.667 19.4355 233.335 17.501 236.261 16.2568C239.201 14.999 242.899 14.3701 247.356 14.3701C251.704 14.3701 255.012 14.999 257.282 16.2568C259.551 17.501 260.474 19.3467 260.05 21.7939L258.287 34.1396C258.136 35.0146 258.122 35.8623 258.245 36.6826C258.382 37.4893 258.615 38.1523 258.943 38.6719L258.881 39H252.073C251.881 38.6719 251.731 38.2139 251.621 37.626C251.512 37.0244 251.471 36.4707 251.498 35.9648C250.651 36.8945 249.031 37.7012 246.638 38.3848C244.245 39.0547 241.518 39.3896 238.455 39.3896C235.01 39.3896 232.303 38.7676 230.334 37.5234C228.366 36.2656 227.573 34.4268 227.955 32.0068ZM235.072 31.5557C234.88 32.6494 235.325 33.4287 236.405 33.8936C237.498 34.3584 239.324 34.5908 241.88 34.5908C244.341 34.5908 246.59 34.2285 248.627 33.5039C250.678 32.7656 251.806 31.8018 252.011 30.6123L252.38 28.1309H244.854C241.955 28.1309 239.645 28.4316 237.922 29.0332C236.2 29.6211 235.249 30.4619 235.072 31.5557ZM263.475 27.3105L263.578 26.6543C264.179 22.8125 266.209 19.8047 269.668 17.6309C273.141 15.4434 277.379 14.3496 282.383 14.3496C287.127 14.3496 290.614 15.1836 292.842 16.8516C295.084 18.5195 296.117 20.5225 295.939 22.8604V23.5166H288.925L288.946 23.0449C289.11 21.9785 288.597 21.1582 287.408 20.584C286.232 20.0098 284.263 19.7227 281.501 19.7227C278.329 19.7227 275.841 20.2832 274.037 21.4043C272.232 22.5117 271.159 24.1455 270.817 26.3057L270.591 27.6387C270.249 29.7988 270.783 31.4395 272.191 32.5605C273.613 33.6816 275.91 34.2422 279.081 34.2422C281.843 34.2422 283.928 33.9482 285.336 33.3604C286.758 32.7725 287.565 31.9316 287.756 30.8379L287.797 30.4688H294.79L294.749 30.8789C294.367 33.1895 292.726 35.2266 289.828 36.9902C286.929 38.7402 283.101 39.6152 278.343 39.6152C273.353 39.6152 269.477 38.5283 266.715 36.3545C263.954 34.167 262.873 31.1523 263.475 27.3105ZM296.636 39L302.173 7.60254H309.187L306.029 22.9834L320.692 14.9648H330.802L304.901 30.5508L303.65 39H296.636ZM319.113 39L307.772 26.1416L313.473 21.9375L328.218 39H319.113Z" fill="white"/>
</svg>
